<?xml version="1.0" standalone="no"?>
<!DOCTYPE svg PUBLIC "-//W3C//DTD SVG 1.1//EN" "http://www.w3.org/Graphics/SVG/1.1/DTD/svg11.dtd" >
<svg xmlns="http://www.w3.org/2000/svg">
<metadata>Generated by IcoMoon</metadata>
<defs>
<font id="icomoon" horiz-adv-x="1024">
<font-face units-per-em="1024" ascent="960" descent="-64" />
<missing-glyph horiz-adv-x="1024" />
<glyph unicode="&#x20;" horiz-adv-x="512" d="" />
<glyph unicode="&#xe900;" glyph-name="delete" d="M959.36 741.792c-3.072 50.24-44.384 90.112-95.36 90.112h-96v32.064c0 53.024-43.008 96-96 96h-320c-53.024 0-96-42.976-96-96v-32.032h-96c-51.040 0-92.32-39.872-95.392-90.112h-0.608v-69.856c0-35.328 28.672-64 64-64v0-544c0-70.688 57.312-128 128-128h512c70.688 0 128 57.312 128 128v544c35.328 0 64 28.672 64 64v69.824h-0.64zM320 863.936c0 17.696 14.304 32 32 32h320c17.696 0 32-14.304 32-32v-32h-384v32zM832 63.936c0-35.264-28.736-64-64-64h-512c-35.296 0-64 28.736-64 64v544h640v-544zM896 703.968v-32h-768v63.968c0 17.696 14.304 32 32 32h704c17.696 0 32-14.304 32-32v-31.968zM288 63.808h64c17.696 0 32 14.304 32 32v416c0 17.696-14.304 32-32 32h-64c-17.696 0-32-14.304-32-32v-416c0-17.696 14.304-32 32-32zM288 511.84h64v-416h-64v416zM480 63.808h64c17.696 0 32 14.304 32 32v416c0 17.696-14.304 32-32 32h-64c-17.696 0-32-14.304-32-32v-416c0-17.696 14.304-32 32-32zM480 511.84h64v-416h-64v416zM672 63.808h64c17.696 0 32 14.304 32 32v416c0 17.696-14.304 32-32 32h-64c-17.696 0-32-14.304-32-32v-416c0-17.696 14.304-32 32-32zM672 511.84h64v-416h-64v416z" />
<glyph unicode="&#xe901;" glyph-name="edit" horiz-adv-x="1025" d="M507.429 274.286l66.286 66.286-86.857 86.857-66.286-66.286v-32h54.857v-54.857h32zM758.857 685.714c-5.143 5.143-13.714 4.571-18.857-0.571l-200-200c-5.143-5.143-5.714-13.714-0.571-18.857s13.714-4.571 18.857 0.571l200 200c5.143 5.143 5.714 13.714 0.571 18.857zM804.571 346.286v-108.571c0-90.857-73.714-164.571-164.571-164.571h-475.429c-90.857 0-164.571 73.714-164.571 164.571v475.429c0 90.857 73.714 164.571 164.571 164.571h475.429c22.857 0 45.714-4.571 66.857-14.286 5.143-2.286 9.143-7.429 10.286-13.143 1.143-6.286-0.571-12-5.143-16.571l-28-28c-5.143-5.143-12-6.857-18.286-4.571-8.571 2.286-17.143 3.429-25.714 3.429h-475.429c-50.286 0-91.429-41.143-91.429-91.429v-475.429c0-50.286 41.143-91.429 91.429-91.429h475.429c50.286 0 91.429 41.143 91.429 91.429v72c0 4.571 1.714 9.143 5.143 12.571l36.571 36.571c5.714 5.714 13.143 6.857 20 4s11.429-9.143 11.429-16.571zM749.714 768l164.571-164.571-384-384h-164.571v164.571zM1003.429 692.571l-52.571-52.571-164.571 164.571 52.571 52.571c21.143 21.143 56.571 21.143 77.714 0l86.857-86.857c21.143-21.143 21.143-56.571 0-77.714z" />
<glyph unicode="&#xe902;" glyph-name="analytics" d="M7.999 649.606h216.005v-705.789h-216.005zM411.212 952.001h201.576v-1008.184h-201.576zM814.425 376.009h201.757v-432.191h-201.818z" />
<glyph unicode="&#xe903;" glyph-name="board" d="M563.844 952v-452.455h452.156c-24.917 239.090-213.102 427.379-449.963 452.268l-2.193 0.187zM814.916 44.872c110.703 82.905 185.73 208.231 200.895 351.42l0.189 2.201h-413.557zM462.733 449.259v502.741c-257.119-25.803-456.185-241.062-456.185-502.816 0-279.013 226.185-505.199 505.199-505.199 78.667 0 153.135 17.981 219.519 50.056l-3.017-1.314s-265.455 450.478-265.455 456.351c-0.017 0.069-0.036 0.129-0.063 0.186l0.003-0.007z" />
<glyph unicode="&#xe904;" glyph-name="diamond" horiz-adv-x="1365" d="M1018.664 952h-672.016l-335.984-335.984 672.016-672.016 672.016 672.016zM178.68 616.016l252 252h504l252-252-504-504zM934.68 784.033h-252v-587.984l420.016 420.016z" />
<glyph unicode="&#xe905;" glyph-name="gift" horiz-adv-x="1092" d="M816.679 907.715c-26.167 27.327-62.945 44.312-103.689 44.312s-77.524-16.984-103.64-44.26l-0.049-0.052-69.081-71.299q-4.436-4.569-8.4-9.408-3.965 4.838-8.4 9.408l-69.081 71.299c-26.167 27.327-62.945 44.312-103.689 44.312s-77.524-16.984-103.64-44.26l-0.049-0.052c-26.579-27.713-42.945-65.403-42.945-106.915s16.365-79.202 42.997-106.969l-0.051 0.054 42.94-44.285h-281.367v-302.4h97.776v-403.2h879.649v403.2h97.776v302.4h-309.994l42.94 44.285c26.579 27.713 42.945 65.403 42.945 106.915s-16.365 79.202-42.997 106.969l0.051-0.054zM678.448 693.885l69.283 71.299c8.842 9.237 14.285 21.791 14.285 35.616s-5.443 26.378-14.303 35.635l0.018-0.019c-8.726 9.11-20.989 14.773-34.574 14.773s-25.849-5.662-34.558-14.755l-0.017-0.018-69.283-71.232c-8.861-9.241-14.317-21.809-14.317-35.649s5.455-26.408 14.334-35.668l-0.018 0.018c8.726-9.11 20.989-14.773 34.574-14.773s25.849 5.662 34.558 14.755l0.017 0.018zM454.336 765.184l-69.148 71.232c-8.726 9.11-20.989 14.773-34.574 14.773s-25.849-5.662-34.558-14.755l-0.017-0.018c-8.861-9.241-14.317-21.809-14.317-35.649s5.455-26.408 14.334-35.668l-0.018 0.018 69.148-71.232c8.726-9.11 20.989-14.773 34.574-14.773s25.849 5.662 34.558 14.755l0.017 0.018c8.861 9.241 14.317 21.809 14.317 35.649s-5.455 26.408-14.334 35.668l0.018-0.018zM985.956 548.8v-100.8h-879.649v100.8zM590.953 347.2h297.293v-302.4h-297.293zM501.308 347.2v-302.4h-297.293v302.4z" />
<glyph unicode="&#xe906;" glyph-name="home" horiz-adv-x="1129" d="M8.82 344.973l555.498 431.222 555.498-431.222v175.804l-555.498 431.222-555.498-431.222zM147.695 360.5v-416.5h277.749v277.749h277.749v-277.749h277.749v416.5l-416.624 312.575z" />
<glyph unicode="&#xe907;" glyph-name="pill" d="M88.919 415.467l0.038 0.039c-48.973-49.833-79.182-118.165-79.182-193.553 0-152.515 123.638-276.152 276.152-276.152 75.375 0 143.697 30.199 193.486 79.117l455.667 455.614c49.975 49.975 80.886 119.015 80.886 195.275 0 152.519-123.641 276.16-276.16 276.16-76.259 0-145.299-30.91-195.275-80.886zM869.856 545.757l-195.194-195.354-260.313 260.259 195.248 195.354c33.317 33.317 79.343 53.924 130.183 53.924 101.679 0 184.106-82.427 184.106-184.106 0-50.84-20.607-96.867-53.924-130.183v0z" />
<glyph unicode="&#xe908;" glyph-name="planner" horiz-adv-x="922" d="M914.403 44.8v705.6c0 55.67-45.13 100.8-100.8 100.8v0h-100.8v100.8h-100.8v-100.8h-302.4v100.8h-100.8v-100.8h-100.8c-55.67 0-100.8-45.13-100.8-100.8v0-705.6c0-55.67 45.13-100.8 100.8-100.8v0h705.6c55.67 0 100.8 45.13 100.8 100.8v0zM309.603 145.6h-100.8v100.8h100.8zM309.603 347.2h-100.8v100.8h100.8zM511.203 145.6h-100.8v100.8h100.8zM511.203 347.2h-100.8v100.8h100.8zM712.803 145.6h-100.8v100.8h100.8zM712.803 347.2h-100.8v100.8h100.8zM813.603 599.2h-705.6v100.8h705.6z" />
<glyph unicode="&#xe909;" glyph-name="setting" d="M1016 385.95v125.994l-150.571 62.754c-4.848 14.060-9.591 25.454-14.917 36.513l0.88-2.028 60.812 151.348-89.128 89.080-149.988-61.782c-9.196 4.588-20.807 9.507-32.718 13.801l-2.448 0.771-63.871 149.599h-125.994l-62.317-149.114c-15.032-5.115-27.107-10.042-38.852-15.552l2.327 0.981-149.745 59.937-89.080-89.080 61.054-148.386c-4.854-9.812-10.023-22.167-14.511-34.844l-0.788-2.555-148.143-63.386v-125.994l148.288-61.782c5.342-15.294 10.526-27.647 16.328-39.645l-0.979 2.245-59.888-149.405 89.080-89.080 148.774 61.249c9.634-4.658 21.762-9.589 34.203-13.838l2.469-0.732 63.725-149.017h125.994l62.365 149.891c11.948 4.42 23.751 9.083 35.068 14.572l151.105-60.569 89.080 89.080-62.025 150.571c5.294 11.317 9.714 22.78 13.794 34.486l150.571 64.211zM510.858 258.985c-104.377 0-188.991 84.614-188.991 188.991s84.614 188.991 188.991 188.991c104.377 0 188.991-84.614 188.991-188.991v0c-0.055-104.287-84.525-188.825-188.78-188.991h-0.016z" />
<glyph unicode="&#xe90a;" glyph-name="shopping-bag" d="M159.2 851.2v0c-27.835 0-50.4-22.565-50.4-50.4v-705.6c0-27.835 22.565-50.4 50.4-50.4h705.6c27.835 0 50.4 22.565 50.4 50.4v705.6c0 27.835-22.565 50.4-50.4 50.4h-705.6zM8 800.8c0 83.506 67.694 151.2 151.2 151.2v0h705.6c83.506 0 151.2-67.694 151.2-151.2v0-705.6c0-83.506-67.694-151.2-151.2-151.2h-705.6c-83.506 0-151.2 67.694-151.2 151.2v0zM512 448c139.167 0 252 135.387 252 302.4h-100.8c0-129.339-84.105-201.6-151.2-201.6s-151.2 72.261-151.2 201.6h-100.8c0-167.013 112.833-302.4 252-302.4z" />
<glyph unicode="&#xe90b;" glyph-name="shopping-cart" horiz-adv-x="1116" d="M268.19 886.125l29.114-123.866h810.195l-17.254-51.763-111.888-458.166v-11.859h-663.442v15.298h-0.653l-141.298 601.361h-164.245v94.87h244.529zM977.644 667.389h-658.046l78.031-332.047h498.96zM471.332-56c65.494 0 118.589 53.094 118.589 118.589s-53.094 118.589-118.589 118.589c-65.494 0-118.589-53.094-118.589-118.589v0c0-65.494 53.094-118.589 118.589-118.589v0zM933.945 62.589c0-65.494-53.094-118.589-118.589-118.589s-118.589 53.094-118.589 118.589c0 65.494 53.094 118.589 118.589 118.589v0c65.494 0 118.589-53.094 118.589-118.589v0z" />
<glyph unicode="&#xe90c;" glyph-name="wallet" horiz-adv-x="1216" d="M1033.478 715.675c8.673 0.029 15.696 7.052 15.724 15.723v52.469c-0.029 28.474-23.090 51.553-51.554 51.61h-84.678l-19.304 57.002c-2.143 6.306-8.012 10.763-14.921 10.763-1.635 0-3.212-0.25-4.695-0.713l0.111 0.030-458.39-139.407c-6.55-1.997-11.234-7.986-11.234-15.070 0-8.684 7.040-15.724 15.724-15.724 0.033 0 0.067 0 0.1 0h-0.005c1.636 0.005 3.214 0.244 4.704 0.685l-0.118-0.031 443.774 134.921 42.286-124.892c2.167-6.278 8.026-10.707 14.918-10.707 8.697 0 15.747 7.050 15.747 15.747 0 1.803-0.303 3.537-0.861 5.15l0.033-0.11-17.236 50.854h73.988c11.134 0 20.16-9.026 20.16-20.16v0-52.366c0-0.015 0-0.032 0-0.050 0-8.684 7.040-15.724 15.724-15.724 0 0 0 0 0 0v0zM1159.177 479.45c-8.699 0-15.75-7.051-15.75-15.75s7.051-15.75 15.75-15.75v0c11.038 0 15.724-4.688 15.724-15.724v-189.001c0-11.038-4.688-15.724-15.724-15.724h-252.001c-11.038 0-15.724 4.688-15.724 15.724v157.501c0 11.038 4.688 15.724 15.724 15.724h189.001c8.673 0.029 15.696 7.052 15.724 15.723v189.054c0.066 0.906 0.103 1.962 0.103 3.027 0 24.467-19.834 44.302-44.302 44.302-1.065 0-2.121-0.037-3.168-0.111l0.141 0.008h-960.678c-1.416-0.122-3.063-0.191-4.727-0.191-32.289 0-58.464 26.176-58.464 58.464 0 1.664 0.070 3.311 0.206 4.941l-0.015-0.213c-0.122 1.416-0.191 3.063-0.191 4.727 0 32.289 26.176 58.464 58.464 58.464 1.664 0 3.311-0.070 4.941-0.206l-0.213 0.015h159.869l-95.307-31.45c-6.385-2.098-10.913-8.005-10.913-14.97 0-8.684 7.040-15.724 15.724-15.724 0.080 0 0.16 0.001 0.24 0.002h-0.012c0.006 0 0.013 0 0.020 0 1.796 0 3.521 0.295 5.133 0.84l-0.113-0.033 570.48 188.144c6.305 2.17 10.754 8.049 10.754 14.968 0 8.724-7.072 15.794-15.794 15.794-1.803 0-3.537-0.302-5.151-0.859l0.111 0.033-380.925-125.698c-0.606 0.18-1.326 0.322-2.064 0.399l-0.053 0.005h-252.001c-1.55 0.095-3.363 0.151-5.188 0.151-49.408 0-89.46-40.052-89.46-89.46 0-1.808 0.053-3.604 0.159-5.386l-0.012 0.245v-692.953c-0.099-1.582-0.157-3.431-0.157-5.292 0-49.408 40.052-89.46 89.46-89.46 1.828 0 3.643 0.055 5.445 0.163l-0.248-0.012h960.678c0.906-0.066 1.962-0.103 3.027-0.103 24.467 0 44.302 19.834 44.302 44.302 0 1.065-0.037 2.121-0.111 3.168l0.008-0.141v157.601c0 8.699-7.051 15.75-15.75 15.75s-15.75-7.051-15.75-15.75v0-157.501c0-11.038-4.688-15.724-15.724-15.724h-960.678c-1.416-0.122-3.063-0.191-4.727-0.191-32.289 0-58.464 26.176-58.464 58.464 0 1.664 0.070 3.311 0.206 4.941l-0.015-0.213v620.124c16.383-13.508 37.588-21.7 60.705-21.7 0.807 0 1.612 0.010 2.415 0.030l-0.119-0.002h960.678c11.038 0 15.724-4.688 15.724-15.724v-173.327h-173.225c-0.906 0.066-1.962 0.103-3.027 0.103-24.467 0-44.302-19.834-44.302-44.302 0-1.065 0.037-2.121 0.111-3.168l-0.008 0.141v-157.501c-0.066-0.906-0.103-1.962-0.103-3.027 0-24.467 19.834-44.302 44.302-44.302 1.065 0 2.121 0.037 3.168 0.111l-0.141-0.008h252.001c0.906-0.066 1.962-0.103 3.027-0.103 24.467 0 44.302 19.834 44.302 44.302 0 1.065-0.037 2.121-0.111 3.168l0.008-0.141v189.001c0.068 0.92 0.107 1.994 0.107 3.077 0 24.467-19.834 44.302-44.302 44.302-1.066 0-2.123-0.037-3.171-0.112l0.141 0.008zM985.951 321.899c0.029-17.375 14.121-31.45 31.5-31.45 17.397 0 31.5 14.103 31.5 31.5 0 17.379-14.075 31.472-31.447 31.5h-0.003c-0.015 0-0.032 0-0.050 0-17.397 0-31.5-14.103-31.5-31.5 0-0.018 0-0.035 0-0.053v0.003z" />
<glyph unicode="&#xe90d;" glyph-name="camera" horiz-adv-x="1280" d="M639.962 574.039c-104.371 0-188.982-84.61-188.982-188.982s84.61-188.982 188.982-188.982c104.371 0 188.982 84.61 188.982 188.982v0c-0.043 104.354-84.628 188.938-188.978 188.982h-0.004zM1143.962 763.019h-151.231c-22.689 1.050-41.757 15.483-49.569 35.544l-0.13 0.381-39.12 117.285c-8.025 20.395-27.094 34.78-49.65 35.843l-0.126 0.005h-428.347c-22.649-1.044-41.696-15.405-49.568-35.392l-0.132-0.379-38.893-117.361c-7.975-20.417-27.025-34.833-49.571-35.919l-0.128-0.005h-151.535c-69.539-0.172-125.865-56.499-126.039-126.022v-567.036c0.216-69.48 56.483-125.746 125.941-125.962h1008.098c69.48 0.216 125.746 56.483 125.962 125.941v567.040c-0.172 69.513-56.455 125.822-125.941 126.039h-0.021zM639.962 70.038c-173.981 0-315.019 141.039-315.019 315.019s141.039 315.019 315.019 315.019c173.981 0 315.019-141.039 315.019-315.019v0c0-0.023 0-0.049 0-0.076 0-173.938-141.005-314.943-314.943-314.943-0.027 0-0.054 0-0.081 0h0.005zM1112.453 561.404c-0.023 0-0.049 0-0.076 0-24.38 0-44.143 19.764-44.143 44.143s19.764 44.143 44.143 44.143c24.38 0 44.143-19.764 44.143-44.143v0c0 0 0 0 0 0 0-24.353-19.72-44.1-44.064-44.143h-0.004z" />
<glyph unicode="&#xe90e;" glyph-name="eye" horiz-adv-x="1322" d="M885.162 448v0c0 123.713-100.289 224.003-224.003 224.003v0c-123.713 0-224.003-100.289-224.003-224.003s100.289-224.003 224.003-224.003c123.713 0 224.003 100.289 224.003 224.003zM773.161 448c0-61.857-50.145-112.001-112.001-112.001s-112.001 50.145-112.001 112.001c0 61.857 50.145 112.001 112.001 112.001v0c61.857 0 112.001-50.145 112.001-112.001v0zM661.16 952.005h-0.002c-311.469-0.022-573.459-211.856-650.836-504.005l1.051-4.686c75.99-287.798 338.109-499.982 649.787-499.982s573.798 212.185 650.839 504.668l-1.057 4.689c-76.218 287.459-338.174 499.317-649.611 499.317-0.060 0-0.12 0-0.171 0zM661.16 55.996c-249.334 0.021-460.624 162.887-533.306 388.038l-1.106 3.966c73.476 229.448 284.886 392.648 534.414 392.648s460.937-163.2 533.314-388.685l1.1-3.964c-73.789-229.116-285.078-391.983-534.411-392.004h-0.003z" />
<glyph unicode="&#xe90f;" glyph-name="help" d="M512-56c-280 0-504 224-504 504s224 504 504 504 504-224 504-504-224-504-504-504zM512 868c-229.6 0-420-190.4-420-420s190.4-420 420-420 420 190.4 420 420-190.4 420-420 420zM657.6 677.6c-39.2 28-89.6 44.8-140 39.2-39.2 0-72.8-11.2-106.4-28-50.4-33.6-78.4-89.6-72.8-151.2h106.4c0 22.4 5.6 39.2 16.8 61.6s39.2 33.6 61.6 28c22.4 0 44.8-5.6 61.6-22.4 11.2-16.8 16.8-33.6 16.8-50.4s-5.6-33.6-16.8-44.8c-5.6-11.2-11.2-16.8-22.4-22.4-28-16.8-56-44.8-84-67.2-16.8-22.4-22.4-50.4-16.8-78.4 0 0 0-5.6 11.2-5.6h84c5.6 0 11.2 5.6 11.2 5.6s0 0 0 0c0 11.2 0 16.8 5.6 28 5.6 16.8 16.8 28 33.6 39.2l28 22.4c22.4 16.8 39.2 33.6 56 50.4 16.8 22.4 28 50.4 28 84 0 39.2-22.4 84-61.6 112v0zM517.6 263.2c-39.2 0-67.2-28-67.2-61.6 0-39.2 28-67.2 61.6-67.2 0 0 0 0 0 0 33.6-5.6 67.2 22.4 67.2 56 0 0 0 5.6 0 5.6 5.6 33.6-22.4 67.2-61.6 67.2 5.6 0 0 0 0 0z" />
<glyph unicode="&#xe910;" glyph-name="logout" horiz-adv-x="1241" d="M955.847 170.8l-78.624 79.2 140.976 141.984h-678.168v112.032h678.168l-140.976 141.984 78.624 79.2 275.256-277.2zM120.936 839.968h556.056v-223.992h111.24v336.024h-778.536v-1008h778.536v336.024h-111.24v-223.992h-556.056z" />
<glyph unicode="&#xe911;" glyph-name="drop" horiz-adv-x="1908" d="M905.235-35.705c12.506-12.527 29.795-20.277 48.893-20.277s36.387 7.75 48.892 20.276l869.624 869.829c12.466 12.496 20.175 29.743 20.175 48.791 0 38.113-30.862 69.017-68.958 69.086h-1739.663c-38.103-0.069-68.965-30.973-68.965-69.086 0-19.048 7.709-36.295 20.176-48.793l-0.001 0.001z" />
<glyph unicode="&#xe912;" glyph-name="plus" d="M513.719-56c-46.884 0-78.14 31.256-78.14 78.14v851.721c0 46.884 31.256 78.14 78.14 78.14s78.14-31.256 78.14-78.14v-851.721c0-46.884-39.070-78.14-78.14-78.14zM935.673 365.953h-851.721c-46.884 0-78.14 31.256-78.14 78.14s31.256 78.14 78.14 78.14h851.721c46.884 0 78.14-31.256 78.14-78.14s-31.256-78.14-78.14-78.14z" />
<glyph unicode="&#xe913;" glyph-name="users" horiz-adv-x="1264" d="M794.266 320.205s-334.376 0-459.708-292.599c136.525-51.374 294.293-81.878 458.96-83.601l0.748-0.006c165.411 1.71 323.181 32.198 469.264 86.677l-9.554-3.122c-125.488 292.65-459.708 292.65-459.708 292.65zM794.266 361.672c125.385 0 208.94 125.385 208.94 334.428s-208.94 209.199-208.94 209.199-208.94 0-208.94-208.992 83.399-334.428 208.94-334.428zM388.464 504.524c0.027 0 0.057 0 0.088 0 41.697 0 79.081 18.468 104.418 47.671l0.145 0.171c-10.229 41.51-16.096 89.165-16.096 138.191 0 2.022 0.010 4.042 0.030 6.059l-0.002-0.308c-0.245 3.639-0.386 7.889-0.386 12.171 0 59.292 26.834 112.316 69.020 147.592l0.303 0.247c-30.615 56.912-89.516 95.083-157.386 95.683l-0.083 0.001c-1.077 0.025-2.347 0.038-3.619 0.038-93.094 0-168.562-75.467-168.562-168.562 0-1.326 0.016-2.648 0.045-3.967l-0.004 0.196c0-172.138 68.834-275.338 172.138-275.338zM550.755 369.758l-5.857 67.85c-46.166 18.378-99.596 30.078-155.446 32.415l-0.986 0.032s-275.338 0-378.382-240.972c89.591-33.785 193.382-57.25 301.384-65.734l3.965-0.25c69.057 77.748 146.249 145.819 230.934 203.735l4.286 2.768z" />
<glyph unicode="&#xe914;" glyph-name="image" d="M959.884 832c0.040-0.034 0.082-0.076 0.116-0.116v-767.77c-0.034-0.040-0.076-0.082-0.116-0.116h-895.77c-0.040 0.034-0.082 0.076-0.114 0.116v767.772c0.034 0.040 0.076 0.082 0.114 0.114h895.77zM960 896h-896c-35.2 0-64-28.8-64-64v-768c0-35.2 28.8-64 64-64h896c35.2 0 64 28.8 64 64v768c0 35.2-28.8 64-64 64v0zM832 672c0-53.020-42.98-96-96-96s-96 42.98-96 96 42.98 96 96 96 96-42.98 96-96zM896 128h-768v128l224 384 256-320h64l224 192z" />
</font>
</defs>
</svg>
